<mxfile host="65bd71144e">
    <diagram id="O2UFSBdMU83VVf1teRqq" name="Page-1">
        <mxGraphModel dx="533" dy="350" grid="1" gridSize="10" guides="1" tooltips="1" connect="1" arrows="1" fold="1" page="0" pageScale="1" pageWidth="850" pageHeight="1100" math="0" shadow="0">
            <root>
                <mxCell id="0"/>
                <mxCell id="1" parent="0"/>
                <mxCell id="19" style="edgeStyle=none;html=1;exitX=1.029;exitY=0.152;exitDx=0;exitDy=0;entryX=-0.004;entryY=0.369;entryDx=0;entryDy=0;fontSize=14;exitPerimeter=0;entryPerimeter=0;" edge="1" parent="1" source="5" target="17">
                    <mxGeometry relative="1" as="geometry"/>
                </mxCell>
                <mxCell id="23" value="/account-api" style="edgeLabel;html=1;align=center;verticalAlign=middle;resizable=0;points=[];fontSize=14;" vertex="1" connectable="0" parent="19">
                    <mxGeometry x="-0.0001" y="-1" relative="1" as="geometry">
                        <mxPoint as="offset"/>
                    </mxGeometry>
                </mxCell>
                <mxCell id="20" style="edgeStyle=none;html=1;exitX=1;exitY=0.75;exitDx=0;exitDy=0;fontSize=14;" edge="1" parent="1" source="5" target="18">
                    <mxGeometry relative="1" as="geometry"/>
                </mxCell>
                <mxCell id="24" value="/app-api" style="edgeLabel;html=1;align=center;verticalAlign=middle;resizable=0;points=[];fontSize=14;" vertex="1" connectable="0" parent="20">
                    <mxGeometry x="-0.2068" y="2" relative="1" as="geometry">
                        <mxPoint as="offset"/>
                    </mxGeometry>
                </mxCell>
                <mxCell id="5" value="&lt;font style=&quot;font-size: 14px;&quot;&gt;Gateway&lt;br&gt;&lt;br&gt;&lt;br&gt;/Auth/Login&lt;br&gt;/Token/Refresh&lt;br&gt;Token/Revoke&lt;br&gt;&lt;/font&gt;" style="rounded=1;whiteSpace=wrap;html=1;strokeWidth=2;fillWeight=4;hachureGap=8;hachureAngle=45;fillColor=#6a00ff;sketch=1;strokeColor=#3700CC;fontColor=#ffffff;" vertex="1" parent="1">
                    <mxGeometry x="140" y="40" width="120" height="250" as="geometry"/>
                </mxCell>
                <mxCell id="17" value="&lt;font style=&quot;font-size: 14px;&quot;&gt;AccountApi&lt;br&gt;&lt;br&gt;/GetProfile&lt;br&gt;/etc&lt;br&gt;&lt;/font&gt;" style="rounded=1;whiteSpace=wrap;html=1;strokeWidth=2;fillWeight=4;hachureGap=8;hachureAngle=45;fillColor=#d80073;sketch=1;strokeColor=#A50040;fontColor=#ffffff;" vertex="1" parent="1">
                    <mxGeometry x="400" y="40" width="120" height="100" as="geometry"/>
                </mxCell>
                <mxCell id="18" value="&lt;font style=&quot;font-size: 14px;&quot;&gt;AppApi&lt;br&gt;&lt;br&gt;/GetCustomer&lt;br&gt;/etc&lt;br&gt;&lt;/font&gt;" style="rounded=1;whiteSpace=wrap;html=1;strokeWidth=2;fillWeight=4;hachureGap=8;hachureAngle=45;fillColor=#a20025;sketch=1;strokeColor=#6F0000;fontColor=#ffffff;" vertex="1" parent="1">
                    <mxGeometry x="400" y="170" width="120" height="110" as="geometry"/>
                </mxCell>
                <mxCell id="32" style="edgeStyle=none;html=1;fontSize=14;" edge="1" parent="1" source="26">
                    <mxGeometry relative="1" as="geometry">
                        <mxPoint x="130" y="100" as="targetPoint"/>
                    </mxGeometry>
                </mxCell>
                <mxCell id="26" value="" style="shape=actor;whiteSpace=wrap;html=1;strokeColor=#005700;fontSize=14;fillColor=#008a00;fontColor=#ffffff;" vertex="1" parent="1">
                    <mxGeometry x="30" y="70" width="40" height="60" as="geometry"/>
                </mxCell>
                <mxCell id="31" style="edgeStyle=none;html=1;fontSize=14;" edge="1" parent="1" source="28">
                    <mxGeometry relative="1" as="geometry">
                        <mxPoint x="130" y="210" as="targetPoint"/>
                    </mxGeometry>
                </mxCell>
                <mxCell id="28" value="" style="shape=actor;whiteSpace=wrap;html=1;strokeColor=#005700;fontSize=14;fillColor=#008a00;fontColor=#ffffff;" vertex="1" parent="1">
                    <mxGeometry x="30" y="180" width="40" height="60" as="geometry"/>
                </mxCell>
                <mxCell id="38" value="Identity as header &lt;br&gt;for every request" style="ellipse;shape=cloud;whiteSpace=wrap;html=1;strokeColor=#006EAF;fontSize=14;fillColor=#1ba1e2;fontColor=#ffffff;" vertex="1" parent="1">
                    <mxGeometry x="290" y="80" width="160" height="130" as="geometry"/>
                </mxCell>
                <mxCell id="39" value="" style="outlineConnect=0;dashed=0;verticalLabelPosition=bottom;verticalAlign=top;align=center;html=1;shape=mxgraph.aws3.api_gateway;fillColor=#D9A741;gradientColor=none;strokeColor=default;fontSize=14;" vertex="1" parent="1">
                    <mxGeometry x="181" y="60" width="38" height="50" as="geometry"/>
                </mxCell>
            </root>
        </mxGraphModel>
    </diagram>
</mxfile>